<svg xmlns="http://www.w3.org/2000/svg" xmlns:xlink="http://www.w3.org/1999/xlink" width="882" height="100" viewBox="0 0 882 100" version="1.1"><g id="surface1"><path style=" stroke:none;fill-rule:evenodd;fill:rgb(100%,100%,100%);fill-opacity:1;" d="M 0 43.046875 C 73.222656 48.757812 209.921875 48.335938 255.652344 42.464844 C 287.4375 38.382812 316.265625 32.339844 344.3125 26.460938 C 357.71875 23.648438 371.046875 20.132812 384.472656 16.589844 C 415.652344 8.367188 447.363281 0 481.867188 0 C 514.085938 0 543.742188 14.285156 571.589844 27.695312 C 580.390625 31.933594 589.011719 36.085938 597.472656 39.671875 L 597.484375 39.675781 L 597.492188 39.679688 C 603.25 42.121094 608.90625 44.515625 614.460938 46.792969 L 614.460938 99.589844 L 0 99.589844 Z M 447.929688 16.027344 C 448.667969 16.792969 447.019531 17.398438 445.667969 17.894531 L 445.648438 17.902344 C 445.191406 18.070312 444.921875 18.1875 444.722656 18.273438 C 444.335938 18.4375 444.222656 18.488281 443.503906 18.578125 C 443.371094 18.59375 443.042969 18.691406 442.726562 18.78125 C 442.429688 18.867188 442.140625 18.949219 442.039062 18.960938 C 441.488281 19.027344 441.074219 19.199219 440.710938 19.347656 C 440.488281 19.441406 440.28125 19.527344 440.074219 19.574219 C 438.742188 19.878906 437.402344 20.128906 436.167969 20.355469 L 436.019531 20.382812 C 434.710938 20.625 433.519531 20.847656 432.371094 21.117188 C 430.160156 21.640625 427.9375 22.089844 425.78125 22.519531 L 425.117188 22.652344 C 424.199219 22.835938 423.417969 22.925781 422.65625 23.011719 C 421.804688 23.113281 420.972656 23.207031 419.992188 23.425781 C 418.757812 23.703125 417.761719 23.867188 416.777344 24.03125 C 415.660156 24.214844 414.5625 24.398438 413.15625 24.738281 C 412.800781 24.820312 411.960938 24.984375 411.121094 25.148438 L 411.117188 25.148438 C 410.285156 25.3125 409.449219 25.472656 409.097656 25.558594 C 407.632812 25.910156 406.359375 26.128906 405.875 25.28125 C 405.539062 24.699219 405.648438 24.644531 406.234375 24.351562 C 406.507812 24.214844 406.882812 24.027344 407.363281 23.710938 C 407.703125 23.628906 408.523438 23.363281 409.339844 23.097656 C 410.15625 22.828125 410.972656 22.5625 411.320312 22.480469 C 412.5625 22.183594 413.46875 21.910156 414.351562 21.644531 C 415.359375 21.34375 416.34375 21.046875 417.785156 20.726562 C 419.757812 20.285156 421.75 19.890625 423.679688 19.503906 L 424.34375 19.371094 C 426.5 18.941406 428.585938 18.519531 430.625 18.039062 C 432.019531 17.710938 433.421875 17.449219 434.707031 17.210938 L 434.785156 17.199219 C 435.421875 17.078125 435.792969 17.101562 436.144531 17.121094 C 436.503906 17.140625 436.84375 17.160156 437.417969 17.027344 C 437.808594 16.9375 438.363281 16.78125 438.945312 16.621094 C 439.917969 16.347656 440.976562 16.050781 441.539062 15.984375 L 441.667969 15.96875 C 441.796875 15.953125 441.914062 15.9375 442.027344 15.921875 C 443.152344 15.78125 443.761719 15.664062 444.125 15.53125 C 445.480469 15.03125 447.183594 15.253906 447.929688 16.027344 Z M 23.753906 50.277344 C 24.539062 50.167969 25.492188 50.039062 25.355469 49.289062 C 25.21875 48.53125 24.46875 48.007812 23.679688 48.113281 C 23.472656 48.140625 23.148438 48.105469 22.570312 47.984375 C 22.496094 47.96875 22.410156 47.949219 22.324219 47.929688 L 22.320312 47.929688 C 22.03125 47.867188 21.445312 47.878906 20.90625 47.886719 C 20.582031 47.894531 20.277344 47.898438 20.0625 47.890625 C 19.75 47.875 19.597656 47.789062 19.429688 47.699219 C 19.269531 47.609375 19.097656 47.515625 18.761719 47.476562 L 18.71875 47.472656 C 18.039062 47.390625 17.300781 47.300781 16.542969 47.269531 C 15.433594 47.222656 14.320312 47.121094 13.171875 47.007812 L 12.820312 46.972656 C 11.789062 46.871094 10.730469 46.769531 9.664062 46.703125 C 8.890625 46.65625 8.335938 46.679688 7.773438 46.707031 C 7.273438 46.730469 6.769531 46.753906 6.089844 46.730469 C 5.902344 46.722656 5.4375 46.761719 4.976562 46.796875 C 4.511719 46.835938 4.046875 46.875 3.859375 46.867188 C 3.542969 47.011719 3.3125 47.082031 3.144531 47.132812 C 2.78125 47.242188 2.714844 47.261719 2.710938 47.78125 C 2.703125 48.546875 3.371094 48.636719 4.171875 48.667969 C 4.363281 48.675781 4.804688 48.722656 5.246094 48.765625 C 5.695312 48.8125 6.140625 48.859375 6.332031 48.867188 C 7.101562 48.894531 7.675781 48.980469 8.257812 49.070312 C 8.773438 49.144531 9.296875 49.222656 9.960938 49.265625 C 10.492188 49.296875 10.914062 49.394531 11.347656 49.492188 C 11.734375 49.582031 12.132812 49.671875 12.621094 49.722656 L 12.972656 49.757812 C 14.125 49.867188 15.308594 49.980469 16.507812 50.03125 C 17.132812 50.058594 17.765625 50.128906 18.457031 50.214844 L 18.535156 50.222656 C 19.1875 50.300781 19.894531 50.386719 20.617188 50.421875 C 20.726562 50.429688 20.851562 50.40625 20.984375 50.378906 C 21.199219 50.339844 21.441406 50.292969 21.722656 50.351562 C 21.777344 50.363281 21.9375 50.359375 22.101562 50.355469 C 22.28125 50.351562 22.460938 50.34375 22.53125 50.359375 C 22.898438 50.4375 22.964844 50.421875 23.199219 50.371094 C 23.316406 50.347656 23.476562 50.3125 23.742188 50.277344 Z M 23.753906 50.277344 " /></g></svg>